<svg xmlns="http://www.w3.org/2000/svg" viewBox="0 0 24 24" id="MessageLock"><path d="M21.78 5.52A5 5 0 0 0 17 2H7a5 5 0 0 0-4.78 3.52A5.197 5.197 0 0 0 2 7v8a5.002 5.002 0 0 0 5 5h4v1a1.003 1.003 0 0 0 1 1h6a1.003 1.003 0 0 0 1-1v-1.41A5.029 5.029 0 0 0 22 15V7a5.197 5.197 0 0 0-.22-1.48ZM7 4h10a3.009 3.009 0 0 1 2.96 2.52L12 10.86 4.04 6.52A3.009 3.009 0 0 1 7 4Zm6 16v-2h4v2Zm1-4a1 1 0 0 1 2 0Zm6-1a3.008 3.008 0 0 1-1 2.23V17a1.003 1.003 0 0 0-1-1c0-3.964-6-3.966-6 0a1.003 1.003 0 0 0-1 1v1H7a3.009 3.009 0 0 1-3-3V8.78l7.52 4.1a1.018 1.018 0 0 0 .96 0L20 8.78Z" fill="#7a5740" class="color000000 svgShape"></path></svg>