<svg xmlns="http://www.w3.org/2000/svg" fill="none" viewBox="0 0 24 24" id="peoplenearby"><path fill="#bf9c6f" fill-rule="evenodd" d="M12 3.5c-4.136 0-7.5 3.397-7.5 7.6 0 2.456 1.847 4.801 3.835 6.594A25.195 25.195 0 0 0 12 20.419l.082-.05a25.193 25.193 0 0 0 3.583-2.675C17.653 15.9 19.5 13.556 19.5 11.1c0-4.203-3.364-7.6-7.5-7.6ZM12 21a73.49 73.49 0 0 1-.246.435l-.003-.001-.005-.003-.019-.011a24.644 24.644 0 0 1-1.258-.797 26.198 26.198 0 0 1-2.804-2.187C5.653 16.622 3.5 14.018 3.5 11.1c0-4.744 3.8-8.6 8.5-8.6s8.5 3.856 8.5 8.6c0 2.918-2.153 5.522-4.165 7.336a26.203 26.203 0 0 1-4.062 2.984l-.02.01-.004.004h-.002L12 21Zm0 0 .247.435a.502.502 0 0 1-.493 0L12 21Z" clip-rule="evenodd" class="color000000 svgShape"></path><path fill="#bf9c6f" fill-rule="evenodd" d="M12 7a2 2 0 1 0 0 4 2 2 0 0 0 0-4zM9 9a3 3 0 1 1 6 0 3 3 0 0 1-6 0zm3 5.5a5.497 5.497 0 0 0-4.71 2.658l-.855-.518A6.497 6.497 0 0 1 12 13.5a6.497 6.497 0 0 1 5.566 3.14l-.856.518A5.497 5.497 0 0 0 12 14.5z" clip-rule="evenodd" class="color000000 svgShape"></path></svg>