<svg xmlns="http://www.w3.org/2000/svg" viewBox="0 0 24 24" id="SendMail"><path d="M18 5h-8a3.963 3.963 0 0 0-2.63 1H3a1 1 0 0 0 0 2h3.149A6.737 6.737 0 0 0 6 10H4a1 1 0 0 0 0 2h2v2H5a1 1 0 0 0 0 2h1.141A3.99 3.99 0 0 0 10 19h8a3.999 3.999 0 0 0 4-4V9a4.005 4.005 0 0 0-4-4Zm-8 2h8a1.992 1.992 0 0 1 1.86 1.28l-6.11 3.33-5.69-3.1A2.005 2.005 0 0 1 10 7Zm10 8a2.006 2.006 0 0 1-2 2h-8a2.006 2.006 0 0 1-2-2v-4.24l5.27 2.87a1.017 1.017 0 0 0 .96 0L20 10.48Z" fill="#fb7413" class="color000000 svgShape"></path></svg>